<svg xmlns="http://www.w3.org/2000/svg" viewBox="0 0 530.06 530.06">
    <circle cx="265.03" cy="265.03" r="265.03" fill="#875a7b"/>
    <path d="M416.74,217.29l5-28a8.4,8.4,0,0,0-8.27-9.88H361.09l10.24-57.34a8.4,8.4,0,0,0-8.27-9.88H334.61a8.4,8.4,0,0,0-8.27,6.93L315.57,179.4H246.5l10.24-57.34a8.4,8.4,0,0,0-8.27-9.88H220a8.4,8.4,0,0,0-8.27,6.93L201,179.4H145.6a8.42,8.42,0,0,0-8.28,6.93l-5,28a8.4,8.4,0,0,0,8.27,9.88H193l-16,89.62H121.59a8.4,8.4,0,0,0-8.27,6.93l-5,28a8.4,8.4,0,0,0,8.27,9.88H169L158.73,416a8.4,8.4,0,0,0,8.27,9.88h28.45a8.42,8.42,0,0,0,8.28-6.93l10.76-60.29h69.07L273.32,416a8.4,8.4,0,0,0,8.27,9.88H310a8.4,8.4,0,0,0,8.27-6.93l10.77-60.29h55.38a8.41,8.41,0,0,0,8.28-6.93l5-28a8.4,8.4,0,0,0-8.27-9.88H337.08l16-89.62h55.38A8.4,8.4,0,0,0,416.74,217.29ZM291.56,313.84H222.5l16-89.62h69.07Z" fill="#ffffff"/>
</svg>