<svg viewBox="0 0 64 64" xmlns="http://www.w3.org/2000/svg" preserveAspectRatio="none" fill="#3AADAA">
    <path d="M62.176 15.969C61.9977 11.1036 61.7097 11.1036 61.5314 15.969L61.1109 27.4466C60.8274 35.1814 60.3657 35.1814 60.0823 27.4466C59.776 19.088 59.2777 19.088 58.9669 27.4466C58.7886 32.3121 58.5006 32.3121 58.3223 27.4466L57.7646 12.2264C57.4491 3.61823 56.9371 3.61823 56.6171 12.2264C56.4891 15.7195 56.2834 15.7195 56.1554 12.2264C55.9771 7.3609 55.6891 7.3609 55.5109 12.2264L54.9531 27.4466C54.7749 32.3121 54.4869 32.3121 54.3086 27.4466L53.5771 7.48567C53.2251 -2.12052 52.6583 -2.24529 52.3063 7.23615C51.9634 16.3433 51.4103 16.3433 51.072 6.98662C50.7337 -2.2453 50.1806 -2.37003 49.8377 6.8619L48.576 40.6707C48.2423 49.7778 47.6983 49.7778 47.3646 40.6707C47.0309 31.5635 46.4914 31.5635 46.1531 40.6707L45.9337 46.6589C45.6 55.7661 45.056 55.7661 44.7223 46.6589L44.6811 45.5362C44.4663 39.6727 44.1234 39.6727 43.9086 45.5362C43.552 55.2671 42.9714 55.2671 42.6149 45.5362L42.0846 31.0645C41.7691 22.4563 41.2526 22.3316 40.9371 31.0645L40.928 31.314C40.8274 34.0586 40.6629 34.0586 40.5577 31.314L40.5486 31.0645C40.192 21.3335 39.6114 21.3335 39.2549 31.0645L38.7154 45.7857C38.6286 48.1561 38.4914 48.1561 38.4046 45.7857L38.3909 45.4114C38.272 42.1677 38.08 42.043 37.9611 45.2866C37.9611 45.2866 37.9611 45.2866 37.9566 45.2866L37.9474 45.5362C37.5909 55.2671 37.0103 55.2671 36.6537 45.5362L36.224 33.8091C35.8674 24.0782 35.2869 24.0782 34.9303 33.8091L34.1166 56.0156C33.9749 60.0078 33.7371 60.0078 33.5954 56.0156L33.5909 55.8909C33.4766 52.772 33.3166 51.5244 33.1611 52.5225C32.9463 53.8948 32.6354 54.8928 32.48 50.6511L31.3829 20.7097C30.848 6.11333 29.9794 6.11333 29.4446 20.7097L29.024 32.4368C28.4023 49.4036 27.392 49.5283 26.7657 32.4368L26.7429 31.813C26.3863 21.9573 25.8057 21.8326 25.4446 31.5635C25.4446 31.5635 25.4446 31.5635 25.44 31.6882L24.6126 54.2691C24.4343 59.1345 24.1463 59.1345 23.968 54.2691L23.9451 53.6453C23.7669 48.7798 23.4789 48.7798 23.3006 53.6453L23.2777 54.2691C23.0994 59.1345 22.8114 59.1345 22.6331 54.2691L22.3269 45.9104C21.9703 36.1795 21.3897 36.1795 21.0331 45.9104C20.8366 51.2749 20.5623 53.8948 20.288 53.0215C20.1326 52.5225 19.9771 52.772 19.904 54.768L19.8903 55.1424C19.5337 64.8733 18.9531 64.8733 18.5966 55.1424L17.7371 31.813C17.5314 26.199 17.1977 26.199 16.9966 31.813L16.9829 32.1873C16.6263 41.9182 16.0457 41.9182 15.6891 32.1873L15.648 31.0645C15.4971 26.9475 15.2549 26.9475 15.104 31.0645C14.9943 34.0586 14.8434 35.3062 14.6926 34.4329C14.5326 33.5596 14.3223 33.1854 14.2171 36.1795L14.2034 36.5537C13.6686 51.1502 12.8 51.1502 12.2651 36.5537L11.7257 22.4564C11.616 19.4622 11.4331 19.3375 11.3189 22.4564L11.2914 23.2049C11.0217 30.5655 10.5874 30.5655 10.3223 23.2049L10.304 22.7059C9.94743 12.9749 9.36686 12.9749 9.01029 22.7059L8.68114 31.6882C8.58514 34.3081 8.42971 34.3081 8.33371 31.6882C8.15543 26.8228 7.86743 26.8228 7.68914 31.6882L7.34171 41.1697C7.16343 46.0352 6.87543 46.0352 6.69714 41.1697L6.02514 22.7059C5.84686 17.8404 5.55886 17.8404 5.38057 22.7059L5.02857 32.312C4.672 42.043 4.09143 42.043 3.73486 32.312L3.21829 18.2146C2.77943 6.23809 2.06629 6.23809 1.62286 18.2146C1.44457 23.0801 1.15657 23.0801 0.978286 18.2146L0.777143 12.7254C0.598857 7.85996 0.310857 7.85996 0.132571 12.7254C0.0457143 15.0958 0 18.2147 0 21.5831V64H64V18.9632C64 12.1017 63.7943 6.48764 63.5429 6.48764C63.4286 6.48764 63.3189 7.73514 63.232 9.85599L62.9851 16.0938C62.7611 22.082 62.3954 22.0821 62.176 15.969Z"/>
</svg>
