<?xml version="1.0" encoding="UTF-8"?>
<svg class="o_picto" viewBox="0 0 64 64" fill="none" xmlns="http://www.w3.org/2000/svg">
    <path d="M30.079 44.7215C30.696 47.1222 30.5912 49.6665 29.7777 52.0327C28.9643 54.3988 27.4788 56.4805 25.5091 58.0145C23.5393 59.5485 21.1738 60.466 18.7117 60.6508C16.2496 60.8357 13.8015 60.2796 11.6769 59.053C9.55228 57.8263 7.84665 55.9842 6.77567 53.7595C5.70469 51.5349 5.31647 49.0276 5.66011 46.5547C6.00374 44.0819 7.06379 41.7545 8.7062 39.867C10.3486 37.9795 12.4996 36.6166 14.8872 35.9506" stroke="currentColor" stroke-width="2" stroke-linecap="round"/>
    <path d="M22.1812 47.0501C22.1013 48.4129 21.6851 49.9678 20.9851 51.518C20.2852 53.0681 19.333 54.5441 18.2489 55.7591C17.1648 56.9741 15.9975 57.8736 14.8946 58.3439C13.7918 58.8142 12.8029 58.8342 12.0531 58.4012C11.3032 57.9683 10.8261 57.1019 10.6819 55.9117C10.5378 54.7215 10.7332 53.2608 11.2434 51.7144C11.7535 50.1681 12.5556 48.6055 13.5481 47.2242C14.5407 45.8429 15.6791 44.705 16.8194 43.9544" stroke="currentColor" stroke-width="2" stroke-linecap="round"/>
    <path d="M31.3932 49.7112L34.7409 48.2907M25.178 59.0022L28.6702 60.2646M19.7395 61.0529L23.1911 62.5455M29.0661 55.2011L32.6785 55.2593M16.5817 57.8539L20.8732 57.6902M21.0208 53.0837L23.8321 52.5922M10.7786 37.7074L10.3198 34.098M5.83461 47.7354L2.99072 45.3423M6.77568 53.4801L3.75729 51.2183M7.17897 42.4677L5.32491 39.3683M26.5326 49.3741L29.1376 52.362M27.6207 44.5709L30.2339 47.2327M24.4385 54.5012L26.2235 56.6914M16.4047 52.3232L18.4632 54.7984M19.3836 47.1636L21.1956 49.7538M11.1086 51.2543L9.45392 48.3101M14.668 45.1163L13.688 42.4358M14.4568 54.4412L10.5667 53.6792M16.7865 48.6349L13.1747 47.7028M12.2993 41.3354L8.40374 40.5595M15.9143 38L12.2984 37.037M8.90839 45.7068L6.10912 45.2537" stroke="currentColor" stroke-linecap="round"/>
    <path d="M47.8669 54.2296V43.8233H51.7324C56.8561 43.8233 61.0096 39.8298 61.0096 34.9035V30.8153C61.0096 28.147 58.7598 25.9838 55.9844 25.9838C53.2091 25.9838 50.9593 28.147 50.9593 30.8153C50.9593 31.8416 50.094 32.6736 49.0266 32.6736H47.8669V10.0027C47.8669 5.28169 43.8864 1.45459 38.9763 1.45459C34.0661 1.45459 30.0856 5.28169 30.0856 10.0027V24.6671C29.2137 24.5604 28.5394 23.8466 28.5394 22.9794C28.5393 20.5335 26.4625 18.5507 23.9008 18.5507C21.3391 18.5507 19.2623 20.5335 19.2622 22.9794V26.7271C19.2622 31.2428 23.0964 34.9035 27.8259 34.9035H30.0856V39.7786" stroke="currentColor" stroke-width="2" stroke-linecap="round" stroke-linejoin="round"/>
    <ellipse cx="35.5816" cy="11.3498" rx="1.13857" ry="1.09948" fill="currentColor"/>
    <ellipse cx="35.5816" cy="28.2087" rx="1.13857" ry="1.09948" fill="currentColor"/>
    <ellipse cx="35.5816" cy="43.6014" rx="1.13857" ry="1.09948" fill="currentColor"/>
    <ellipse cx="42.413" cy="19.4127" rx="1.13857" ry="1.09948" fill="currentColor"/>
    <ellipse cx="42.413" cy="36.2714" rx="1.13857" ry="1.09948" fill="currentColor"/>
    <ellipse cx="42.413" cy="51.6642" rx="1.13857" ry="1.09948" fill="currentColor"/>
</svg>
